<?xml version="1.0" encoding="iso-8859-1"?>
<!-- Generator: Adobe Illustrator 19.0.0, SVG Export Plug-In . SVG Version: 6.00 Build 0)  -->
<svg version="1.1" id="Layer_1" xmlns="http://www.w3.org/2000/svg" xmlns:xlink="http://www.w3.org/1999/xlink" x="0px" y="0px"
	 viewBox="0 0 511.999 511.999" style="enable-background:new 0 0 511.999 511.999;" xml:space="preserve">
<g>
	<circle style="fill:#EFEFEF;" cx="255.999" cy="89.816" r="63.763"/>
	<path style="fill:#EFEFEF;" d="M135.078,315.706c0-66.782,54.138-120.921,120.921-120.921s120.921,54.138,120.921,120.921
		L135.078,315.706L135.078,315.706z"/>
</g>
<polygon style="fill:#E8594F;" points="78.672,355.297 98.324,400.465 147.355,405.198 110.469,437.846 121.12,485.939 
	78.672,460.949 36.223,485.939 46.874,437.846 9.989,405.198 59.02,400.465 "/>
<polygon style="fill:#F4AD47;" points="255.999,355.297 275.651,400.465 324.681,405.198 287.796,437.846 298.447,485.939 
	255.999,460.949 213.55,485.939 224.201,437.846 187.316,405.198 236.346,400.465 "/>
<polygon style="fill:#61C7D2;" points="433.325,355.297 452.977,400.465 502.008,405.198 465.123,437.846 475.774,485.939 
	433.325,460.949 390.877,485.939 401.528,437.846 364.642,405.198 413.673,400.465 "/>
<g>
	<path style="fill:#231F20;" d="M255.999,163.565c40.664,0,73.748-33.084,73.748-73.749c0-40.664-33.084-73.748-73.748-73.748
		s-73.748,33.084-73.748,73.748C182.251,130.481,215.334,163.565,255.999,163.565z M255.999,36.049
		c29.647,0,53.767,24.12,53.767,53.767c0,29.649-24.12,53.769-53.767,53.769s-53.767-24.12-53.767-53.769
		C202.231,60.169,226.351,36.049,255.999,36.049z"/>
	<path style="fill:#231F20;" d="M135.078,325.696h241.841c0.009,0,0.016,0,0.025,0c5.517,0,9.99-4.473,9.99-9.99
		c0-0.25-0.009-0.496-0.026-0.741c-0.4-71.845-58.971-130.17-130.91-130.17c-72.185,0-130.911,58.726-130.911,130.911
		C125.088,321.223,129.561,325.696,135.078,325.696z M255.999,204.775c57.8,0,105.417,44.437,110.485,100.94H145.514
		C150.581,249.212,198.199,204.775,255.999,204.775z"/>
	<path style="fill:#231F20;" d="M148.315,395.254l-43.177-4.167l-17.304-39.775c-1.587-3.646-5.185-6.005-9.161-6.005
		c-3.976,0-7.574,2.359-9.161,6.005l-17.304,39.775l-43.177,4.167c-3.957,0.382-7.313,3.075-8.542,6.857
		c-1.229,3.783-0.097,7.932,2.88,10.567l32.481,28.749l-9.378,42.351c-0.859,3.882,0.664,7.906,3.881,10.242
		c3.217,2.338,7.514,2.544,10.941,0.527l37.379-22.006l37.38,22.007c1.568,0.924,3.321,1.381,5.068,1.381
		c2.068,0,4.128-0.641,5.873-1.908c3.217-2.338,4.742-6.36,3.881-10.242l-9.378-42.351l32.481-28.749
		c2.977-2.635,4.108-6.786,2.88-10.567C155.627,398.331,152.272,395.636,148.315,395.254z M103.848,430.366
		c-2.719,2.405-3.917,6.097-3.132,9.641l5.686,25.675l-22.66-13.342c-1.563-0.92-3.316-1.381-5.069-1.381
		c-1.753,0-3.504,0.461-5.069,1.381l-22.662,13.342l5.686-25.675c0.785-3.544-0.415-7.234-3.132-9.641l-19.692-17.43l26.176-2.526
		c3.614-0.348,6.753-2.63,8.201-5.958l10.491-24.113l10.491,24.113c1.449,3.329,4.588,5.61,8.201,5.958l26.176,2.526
		L103.848,430.366z"/>
	<path style="fill:#231F20;" d="M325.642,395.254l-43.177-4.167l-17.304-39.775c-1.587-3.646-5.185-6.005-9.161-6.005
		c-3.976,0-7.574,2.359-9.161,6.005l-17.304,39.775l-43.177,4.167c-3.957,0.382-7.313,3.075-8.542,6.857
		c-1.229,3.783-0.097,7.932,2.88,10.567l32.481,28.749l-9.378,42.351c-0.859,3.882,0.664,7.906,3.881,10.242
		c3.217,2.338,7.515,2.544,10.941,0.527l37.378-22.006l37.38,22.007c1.568,0.924,3.321,1.381,5.068,1.381
		c2.068,0,4.128-0.641,5.873-1.908c3.217-2.338,4.742-6.36,3.881-10.242l-9.378-42.351l32.481-28.749
		c2.977-2.635,4.109-6.786,2.88-10.567C332.953,398.331,329.599,395.636,325.642,395.254z M281.175,430.366
		c-2.719,2.405-3.917,6.097-3.132,9.641l5.686,25.675l-22.66-13.342c-1.563-0.92-3.315-1.381-5.069-1.381
		c-1.753,0-3.504,0.461-5.069,1.381l-22.66,13.342l5.686-25.675c0.785-3.544-0.415-7.234-3.132-9.641l-19.692-17.43l26.176-2.526
		c3.614-0.348,6.753-2.63,8.201-5.958l10.49-24.113l10.491,24.113c1.449,3.329,4.588,5.61,8.201,5.958l26.176,2.526L281.175,430.366
		z"/>
	<path style="fill:#231F20;" d="M511.51,402.111c-1.229-3.781-4.583-6.475-8.542-6.857l-43.177-4.167l-17.304-39.775
		c-1.587-3.646-5.185-6.005-9.161-6.005s-7.574,2.359-9.161,6.005l-17.304,39.775l-43.177,4.167
		c-3.957,0.382-7.313,3.075-8.542,6.857c-1.229,3.783-0.097,7.932,2.88,10.567l32.481,28.749l-9.378,42.351
		c-0.859,3.882,0.664,7.906,3.881,10.242c3.217,2.338,7.515,2.544,10.941,0.527l37.379-22.006l37.38,22.007
		c1.568,0.924,3.32,1.381,5.068,1.381c2.068,0,4.128-0.641,5.873-1.908c3.217-2.338,4.742-6.36,3.881-10.242l-9.378-42.351
		l32.481-28.749C511.608,410.043,512.738,405.893,511.51,402.111z M458.502,430.366c-2.719,2.405-3.917,6.097-3.132,9.641
		l5.686,25.675l-22.66-13.342c-1.563-0.92-3.316-1.381-5.069-1.381s-3.504,0.461-5.069,1.381l-22.66,13.342l5.686-25.675
		c0.785-3.544-0.415-7.234-3.132-9.641l-19.692-17.43l26.176-2.526c3.614-0.348,6.753-2.63,8.201-5.958l10.49-24.113l10.491,24.113
		c1.449,3.329,4.588,5.61,8.201,5.958l26.176,2.526L458.502,430.366z"/>
</g>
<g>
</g>
<g>
</g>
<g>
</g>
<g>
</g>
<g>
</g>
<g>
</g>
<g>
</g>
<g>
</g>
<g>
</g>
<g>
</g>
<g>
</g>
<g>
</g>
<g>
</g>
<g>
</g>
<g>
</g>
</svg>
